<?xml version="1.0" encoding="UTF-8"?>
<!DOCTYPE svg PUBLIC "-//W3C//DTD SVG 1.1//EN" "http://www.w3.org/Graphics/SVG/1.1/DTD/svg11.dtd">
<!-- Creator: CorelDRAW 2021 (64-Bit) -->
<svg xmlns="http://www.w3.org/2000/svg" xml:space="preserve" width="30mm" height="18mm" version="1.1" style="shape-rendering:geometricPrecision; text-rendering:geometricPrecision; image-rendering:optimizeQuality; fill-rule:evenodd; clip-rule:evenodd"
viewBox="0 0 3000 1800"
 xmlns:xlink="http://www.w3.org/1999/xlink"
 xmlns:xodm="http://www.corel.com/coreldraw/odm/2003">
 <defs>
  <style type="text/css">
   <![CDATA[
    .fil1 {fill:white;fill-rule:nonzero}
    .fil0 {fill:url(#id0)}
   ]]>
  </style>
  <linearGradient id="id0" gradientUnits="userSpaceOnUse" x1="948.17" y1="351.03" x2="2066.07" y2="1468.93">
   <stop offset="0" style="stop-opacity:1; stop-color:#852CAC"/>
   <stop offset="0.14902" style="stop-opacity:1; stop-color:#5E208D"/>
   <stop offset="0.329412" style="stop-opacity:1; stop-color:#3D2386"/>
   <stop offset="0.588235" style="stop-opacity:1; stop-color:#2B257F"/>
   <stop offset="0.780392" style="stop-opacity:1; stop-color:#32469C"/>
   <stop offset="1" style="stop-opacity:1; stop-color:#287EB9"/>
  </linearGradient>
 </defs>
 <g id="Capa_x0020_1">
  <metadata id="CorelCorpID_0Corel-Layer"/>
  <g id="_2268030023040">
   <circle class="fil0" cx="1507.12" cy="909.98" r="790.48"/>
   <path class="fil1" d="M1119.52 1263.68c-28,41.27 -32.42,67.79 -32.42,92.85 0,58.95 45.69,103.16 116.43,103.16 36.84,0 73.68,-13.27 94.32,-47.16l209.27 -334.54 194.53 325.7c28.01,47.16 61.9,56 101.69,56 67.8,0 123.8,-41.27 123.8,-119.37 0,-28.01 -14.74,-47.16 -39.79,-85.48l-240.22 -361.07 246.11 -359.6c11.79,-16.21 22.11,-44.21 22.11,-64.84 0,-76.64 -57.48,-109.06 -116.43,-109.06 -53.05,0 -73.69,19.16 -98.74,58.95l-187.17 302.12 -175.37 -302.12c-14.74,-25.05 -42.74,-58.95 -100.22,-58.95 -69.26,0 -120.84,50.11 -120.84,113.48 0,28 10.31,51.58 25.05,73.69l231.38 346.33 -253.49 369.91z"/>
  </g>
 </g>
</svg>
