<?xml version="1.0" encoding="UTF-8"?>
<!DOCTYPE svg PUBLIC "-//W3C//DTD SVG 1.1//EN" "http://www.w3.org/Graphics/SVG/1.1/DTD/svg11.dtd">
<!-- Creator: CorelDRAW 2021 (64-Bit) -->
<svg xmlns="http://www.w3.org/2000/svg" xml:space="preserve" width="30mm" height="18mm" version="1.1" style="shape-rendering:geometricPrecision; text-rendering:geometricPrecision; image-rendering:optimizeQuality; fill-rule:evenodd; clip-rule:evenodd"
viewBox="0 0 3000 1800"
 xmlns:xlink="http://www.w3.org/1999/xlink"
 xmlns:xodm="http://www.corel.com/coreldraw/odm/2003">
 <defs>
  <style type="text/css">
   <![CDATA[
    .fil1 {fill:white}
    .fil0 {fill:url(#id0)}
   ]]>
  </style>
  <linearGradient id="id0" gradientUnits="userSpaceOnUse" x1="933.98" y1="346.98" x2="2051.88" y2="1464.88">
   <stop offset="0" style="stop-opacity:1; stop-color:#852CAC"/>
   <stop offset="0.14902" style="stop-opacity:1; stop-color:#5E208D"/>
   <stop offset="0.329412" style="stop-opacity:1; stop-color:#3D2386"/>
   <stop offset="0.588235" style="stop-opacity:1; stop-color:#2B257F"/>
   <stop offset="0.780392" style="stop-opacity:1; stop-color:#32469C"/>
   <stop offset="1" style="stop-opacity:1; stop-color:#287EB9"/>
  </linearGradient>
 </defs>
 <g id="Capa_x0020_1">
  <metadata id="CorelCorpID_0Corel-Layer"/>
  <g id="_2953147244864">
   <circle class="fil0" cx="1492.93" cy="905.93" r="790.48"/>
   <path class="fil1" d="M1170.96 464.67l0 -0.01c60.68,-25.3 131.02,3.63 156.32,64.31l165.65 397.19 165.65 -397.19c25.3,-60.68 95.64,-89.61 156.32,-64.31l0 0.01c60.68,25.3 89.62,95.64 64.31,156.31l-276.04 661.91 -0.41 0.95 -0.6 1.39 -0.71 1.58 -0.55 1.17 -0.64 1.34 -0.64 1.29 -0.76 1.48 -0.61 1.16 -0.64 1.18 -0.96 1.72 -0.4 0.69 -1.27 2.15 -0.11 0.18c-12.68,20.83 -31.76,37.98 -55.85,48.03l-0.01 0c-14.81,6.18 -30.19,9.12 -45.35,9.16l-0.73 0 -0.73 0c-15.16,-0.04 -30.54,-2.98 -45.35,-9.16l-0.01 0c-24.1,-10.05 -43.18,-27.21 -55.85,-48.03l-0.11 -0.18c-0.43,-0.71 -0.85,-1.43 -1.27,-2.15l-0.4 -0.69 -0.96 -1.72 -0.64 -1.18 -0.61 -1.16 -0.76 -1.48 -0.64 -1.29 -0.64 -1.34 -0.55 -1.17 -0.71 -1.58 -0.52 -1.19 -0.49 -1.15 -276.04 -661.91c-25.31,-60.67 3.63,-131.01 64.31,-156.31z"/>
  </g>
 </g>
</svg>
